<svg width="50" height="50" viewBox="0 0 50 50" fill="none" xmlns="http://www.w3.org/2000/svg">
<path d="M23.3125 37.5H27.0625V22.5H23.3125V37.5ZM25 17.875C25.5833 17.875 26.0729 17.6875 26.4687 17.3125C26.8646 16.9375 27.0625 16.4583 27.0625 15.875C27.0625 15.2917 26.8646 14.7917 26.4687 14.375C26.0729 13.9583 25.5833 13.75 25 13.75C24.4167 13.75 23.9271 13.9583 23.5313 14.375C23.1354 14.7917 22.9375 15.2917 22.9375 15.875C22.9375 16.4583 23.1354 16.9375 23.5313 17.3125C23.9271 17.6875 24.4167 17.875 25 17.875ZM25 50C21.5833 50 18.3542 49.3437 15.3125 48.0312C12.2708 46.7187 9.61458 44.9271 7.34375 42.6562C5.07292 40.3854 3.28125 37.7292 1.96875 34.6875C0.65625 31.6458 0 28.3958 0 24.9375C0 21.5208 0.65625 18.2917 1.96875 15.25C3.28125 12.2083 5.07292 9.5625 7.34375 7.3125C9.61458 5.0625 12.2708 3.28125 15.3125 1.96875C18.3542 0.65625 21.6042 0 25.0625 0C28.4792 0 31.7083 0.65625 34.75 1.96875C37.7917 3.28125 40.4375 5.0625 42.6875 7.3125C44.9375 9.5625 46.7187 12.2083 48.0312 15.25C49.3437 18.2917 50 21.5417 50 25C50 28.4167 49.3437 31.6458 48.0312 34.6875C46.7187 37.7292 44.9375 40.3854 42.6875 42.6562C40.4375 44.9271 37.7917 46.7187 34.75 48.0312C31.7083 49.3437 28.4583 50 25 50ZM25.0625 46.25C30.9375 46.25 35.9375 44.1771 40.0625 40.0313C44.1875 35.8854 46.25 30.8542 46.25 24.9375C46.25 19.0625 44.1875 14.0625 40.0625 9.9375C35.9375 5.8125 30.9167 3.75 25 3.75C19.125 3.75 14.1146 5.8125 9.96875 9.9375C5.82292 14.0625 3.75 19.0833 3.75 25C3.75 30.875 5.82292 35.8854 9.96875 40.0313C14.1146 44.1771 19.1458 46.25 25.0625 46.25Z" fill="black"/>
</svg>
