<svg width="35" height="35" viewBox="0 0 35 35" fill="none" xmlns="http://www.w3.org/2000/svg">
<path d="M23.1298 8.8356C23.3947 8.57068 23.7092 8.36054 24.0553 8.21716C24.4015 8.07379 24.7725 8 25.1471 8C25.5217 8 25.8927 8.07379 26.2389 8.21716C26.585 8.36054 26.8995 8.57068 27.1644 8.8356C27.4293 9.10051 27.6395 9.41501 27.7828 9.76114C27.9262 10.1073 28 10.4783 28 10.8529C28 11.2275 27.9262 11.5985 27.7828 11.9447C27.6395 12.2908 27.4293 12.6053 27.1644 12.8702L13.5476 26.487L8 28L9.51298 22.4524L23.1298 8.8356Z" stroke="#3A3A3A" stroke-width="2" stroke-linecap="round" stroke-linejoin="round"/>
<path d="M23.1298 8.8356C23.3947 8.57068 23.7092 8.36054 24.0553 8.21716C24.4015 8.07379 24.7725 8 25.1471 8C25.5217 8 25.8927 8.07379 26.2389 8.21716C26.585 8.36054 26.8995 8.57068 27.1644 8.8356C27.4293 9.10051 27.6395 9.41501 27.7828 9.76114C27.9262 10.1073 28 10.4783 28 10.8529C28 11.2275 27.9262 11.5985 27.7828 11.9447C27.6395 12.2908 27.4293 12.6053 27.1644 12.8702L13.5476 26.487L8 28L9.51298 22.4524L23.1298 8.8356Z" stroke="#7D7D7D" stroke-width="2" stroke-linecap="round" stroke-linejoin="round"/>
</svg>
