<svg width="35" height="35" viewBox="0 0 35 35" fill="none" xmlns="http://www.w3.org/2000/svg">
<circle cx="17.5" cy="17.5" r="17.5" fill="#BEBEBE"/>
<path d="M17 9.12109H10C9.46957 9.12109 8.96086 9.33181 8.58579 9.70688C8.21071 10.082 8 10.5907 8 11.1211V25.1211C8 25.6515 8.21071 26.1602 8.58579 26.5353C8.96086 26.9104 9.46957 27.1211 10 27.1211H24C24.5304 27.1211 25.0391 26.9104 25.4142 26.5353C25.7893 26.1602 26 25.6515 26 25.1211V18.1211" stroke="black" stroke-width="2" stroke-linecap="round" stroke-linejoin="round"/>
<path d="M24.5 7.62132C24.8978 7.2235 25.4374 7 26 7C26.5626 7 27.1022 7.2235 27.5 7.62132C27.8978 8.01915 28.1213 8.55871 28.1213 9.12132C28.1213 9.68393 27.8978 10.2235 27.5 10.6213L18 20.1213L14 21.1213L15 17.1213L24.5 7.62132Z" stroke="black" stroke-width="2" stroke-linecap="round" stroke-linejoin="round"/>
</svg>
