<svg width="45" height="42" viewBox="0 0 45 42" fill="none" xmlns="http://www.w3.org/2000/svg">
<path d="M26.5909 14.6919V11.5715C27.7159 10.9647 28.8665 10.5097 30.0426 10.2063C31.2187 9.90293 32.4545 9.75124 33.75 9.75124C34.6364 9.75124 35.5057 9.83792 36.358 10.0113C37.2102 10.1846 38.0455 10.4013 38.8636 10.6614V13.5217C38.0455 13.1317 37.2187 12.8391 36.3835 12.6441C35.5483 12.4491 34.6705 12.3516 33.75 12.3516C32.4545 12.3516 31.2102 12.5574 30.017 12.9692C28.8239 13.3809 27.6818 13.9551 26.5909 14.6919ZM26.5909 28.9937V25.8083C27.7159 25.2015 28.8665 24.7573 30.0426 24.4756C31.2187 24.1939 32.4545 24.0531 33.75 24.0531C34.6364 24.0531 35.5057 24.1397 36.358 24.3131C37.2102 24.4865 38.0455 24.7032 38.8636 24.9632V27.8235C38.0455 27.4335 37.2187 27.141 36.3835 26.9459C35.5483 26.7509 34.6705 26.6534 33.75 26.6534C32.4545 26.6534 31.2102 26.8484 30.017 27.2385C28.8239 27.6285 27.6818 28.2136 26.5909 28.9937ZM26.5909 21.8428V18.7224C27.7159 18.1156 28.8665 17.6606 30.0426 17.3572C31.2187 17.0538 32.4545 16.9022 33.75 16.9022C34.6364 16.9022 35.5057 16.9888 36.358 17.1622C37.2102 17.3355 38.0455 17.5522 38.8636 17.8123V20.6726C38.0455 20.2826 37.2187 19.99 36.3835 19.795C35.5483 19.6 34.6705 19.5025 33.75 19.5025C32.4545 19.5025 31.2102 19.7083 30.017 20.1201C28.8239 20.5318 27.6818 21.106 26.5909 21.8428ZM10.6364 32.5041C12.4773 32.5041 14.2585 32.775 15.9801 33.3167C17.7017 33.8585 19.3977 34.6711 21.0682 35.7546V7.99602C19.5341 6.69585 17.8722 5.68823 16.0824 4.97313C14.2926 4.25804 12.4773 3.9005 10.6364 3.9005C9.34091 3.9005 8.07102 4.10636 6.8267 4.51808C5.58239 4.9298 4.32955 5.43903 3.06818 6.04577V34.2594C4.125 33.6526 5.3267 33.2084 6.67329 32.9267C8.01989 32.645 9.34091 32.5041 10.6364 32.5041ZM24.1364 35.7546C25.8409 34.6711 27.5114 33.8585 29.1477 33.3167C30.7841 32.775 32.5227 32.5041 34.3636 32.5041C35.6591 32.5041 36.9972 32.6342 38.3778 32.8942C39.7585 33.1542 40.9432 33.5009 41.9318 33.9343V6.04577C40.7727 5.30901 39.5455 4.76727 38.25 4.42056C36.9545 4.07385 35.6591 3.9005 34.3636 3.9005C32.5227 3.9005 30.7415 4.25804 29.0199 4.97313C27.2983 5.68823 25.6705 6.69585 24.1364 7.99602V35.7546ZM22.6023 41.6053C20.8636 39.9584 18.9716 38.6908 16.9261 37.8023C14.8807 36.9139 12.7841 36.4696 10.6364 36.4696C9.375 36.4696 8.14773 36.6647 6.95455 37.0547C5.76136 37.4448 4.56818 37.9215 3.375 38.4849C2.59091 38.9616 1.83239 38.8966 1.09943 38.2899C0.366477 37.6831 0 36.8164 0 35.6896V5.59071C0 4.94063 0.119318 4.34472 0.357954 3.80299C0.596591 3.26125 0.954546 2.8387 1.43182 2.53532C2.86364 1.66855 4.35511 1.0293 5.90625 0.617579C7.45739 0.20586 9.03409 0 10.6364 0C12.7841 0 14.8722 0.368381 16.9006 1.10514C18.929 1.8419 20.8295 2.96871 22.6023 4.48557C24.3409 2.96871 26.2074 1.8419 28.2017 1.10514C30.196 0.368381 32.25 0 34.3636 0C35.9659 0 37.5341 0.20586 39.0682 0.617579C40.6023 1.0293 42.0852 1.66855 43.517 2.53532C43.9943 2.8387 44.3608 3.26125 44.6165 3.80299C44.8722 4.34472 45 4.94063 45 5.59071V35.6896C45 36.903 44.6165 37.824 43.8494 38.4524C43.0824 39.0808 42.3239 39.0916 41.5739 38.4849C40.4148 37.8782 39.2386 37.3906 38.0455 37.0222C36.8523 36.6538 35.625 36.4696 34.3636 36.4696C32.2159 36.4696 30.1534 36.9247 28.1761 37.8348C26.1989 38.7449 24.3409 40.0018 22.6023 41.6053Z" fill="black"/>
</svg>
