<svg width="44" height="40" viewBox="0 0 44 40" fill="none" xmlns="http://www.w3.org/2000/svg">
<path d="M21.75 36.95C21.9167 36.95 22.1083 36.9083 22.325 36.825C22.5417 36.7417 22.7167 36.6333 22.85 36.5L39.7 19.6C40.1333 19.1667 40.4583 18.675 40.675 18.125C40.8917 17.575 41 17.0167 41 16.45C41 15.8833 40.8917 15.3167 40.675 14.75C40.4583 14.1833 40.1333 13.6833 39.7 13.25L30.7 4.25C30.2667 3.81667 29.7667 3.49167 29.2 3.275C28.6333 3.05833 28.0667 2.95 27.5 2.95C26.9333 2.95 26.375 3.05833 25.825 3.275C25.275 3.49167 24.7833 3.81667 24.35 4.25L23.45 5.15L27.5 9.25C27.9333 9.71667 28.3167 10.2583 28.65 10.875C28.9833 11.4917 29.15 12.1667 29.15 12.9C29.15 14.1667 28.6583 15.2833 27.675 16.25C26.6917 17.2167 25.5667 17.7 24.3 17.7C23.4667 17.7 22.775 17.575 22.225 17.325C21.675 17.075 21.1667 16.7167 20.7 16.25L17.05 12.6L8 21.65C7.83333 21.8167 7.71667 21.9917 7.65 22.175C7.58333 22.3583 7.55 22.55 7.55 22.75C7.55 23.1833 7.69167 23.5417 7.975 23.825C8.25833 24.1083 8.61667 24.25 9.05 24.25C9.25 24.25 9.44167 24.2 9.625 24.1C9.80833 24 9.96667 23.8833 10.1 23.75L17 16.85L19.1 18.95L12.25 25.8C12.0833 25.9667 11.9667 26.15 11.9 26.35C11.8333 26.55 11.8 26.75 11.8 26.95C11.8 27.35 11.95 27.7 12.25 28C12.55 28.3 12.9 28.45 13.3 28.45C13.5 28.45 13.6917 28.4083 13.875 28.325C14.0583 28.2417 14.2167 28.1333 14.35 28L21.25 21.1L23.35 23.2L16.5 30.05C16.3667 30.1833 16.2583 30.3583 16.175 30.575C16.0917 30.7917 16.05 31 16.05 31.2C16.05 31.6 16.2 31.95 16.5 32.25C16.8 32.55 17.15 32.7 17.55 32.7C17.75 32.7 17.9333 32.6667 18.1 32.6C18.2667 32.5333 18.4333 32.4167 18.6 32.25L25.5 25.35L27.6 27.45L20.7 34.35C20.5333 34.5167 20.4167 34.7 20.35 34.9C20.2833 35.1 20.25 35.2833 20.25 35.45C20.25 35.9167 20.3833 36.2833 20.65 36.55C20.9167 36.8167 21.2833 36.95 21.75 36.95ZM21.75 39.95C20.65 39.95 19.6667 39.5417 18.8 38.725C17.9333 37.9083 17.4167 36.9 17.25 35.7C16.1167 35.5333 15.1667 35.0667 14.4 34.3C13.6333 33.5333 13.1667 32.5833 13 31.45C11.8667 31.2833 10.925 30.8083 10.175 30.025C9.425 29.2417 8.96667 28.3 8.8 27.2C7.56667 27.0333 6.55 26.5333 5.75 25.7C4.95 24.8667 4.55 23.8667 4.55 22.7C4.55 22.1333 4.65833 21.5667 4.875 21C5.09167 20.4333 5.41667 19.9333 5.85 19.5L17.05 8.3L22.55 13.8C22.8167 14.0667 23.1083 14.275 23.425 14.425C23.7417 14.575 24.05 14.65 24.35 14.65C24.7833 14.65 25.1917 14.4583 25.575 14.075C25.9583 13.6917 26.15 13.2833 26.15 12.85C26.15 12.65 26.0917 12.425 25.975 12.175C25.8583 11.925 25.6667 11.6667 25.4 11.4L18.25 4.25C17.8167 3.81667 17.3167 3.49167 16.75 3.275C16.1833 3.05833 15.6167 2.95 15.05 2.95C14.4833 2.95 13.925 3.05833 13.375 3.275C12.825 3.49167 12.3333 3.81667 11.9 4.25L4.3 11.85C3.83333 12.3167 3.50833 12.8083 3.325 13.325C3.14167 13.8417 3.03333 14.4167 3 15.05C2.96667 15.7167 3.09167 16.3583 3.375 16.975C3.65833 17.5917 4 18.15 4.4 18.65L2.25 20.8C1.58333 20.0667 1.04167 19.1833 0.625 18.15C0.208333 17.1167 0 16.0667 0 15C0 14 0.191667 13.0417 0.575 12.125C0.958333 11.2083 1.5 10.4 2.2 9.7L9.75 2.15C10.4833 1.41667 11.3167 0.875 12.25 0.525C13.1833 0.175 14.1333 0 15.1 0C16.0667 0 17.0083 0.175 17.925 0.525C18.8417 0.875 19.6667 1.41667 20.4 2.15L21.3 3.05L22.2 2.15C22.9333 1.41667 23.7667 0.875 24.7 0.525C25.6333 0.175 26.5833 0 27.55 0C28.5167 0 29.4583 0.175 30.375 0.525C31.2917 0.875 32.1167 1.41667 32.85 2.15L41.8 11.1C42.5333 11.8333 43.0833 12.6667 43.45 13.6C43.8167 14.5333 44 15.4833 44 16.45C44 17.4167 43.8167 18.3583 43.45 19.275C43.0833 20.1917 42.5333 21.0167 41.8 21.75L24.95 38.6C24.5167 39.0333 24.025 39.3667 23.475 39.6C22.925 39.8333 22.35 39.95 21.75 39.95Z" fill="black"/>
</svg>
